<?xml version="1.0" standalone="no"?>
<svg xmlns:xlink="http://www.w3.org/1999/xlink" id="wave" style="transform:rotate(0deg); transition: 0.3s" viewBox="0 0 1440 340" version="1.1" xmlns="http://www.w3.org/2000/svg"><defs><linearGradient id="sw-gradient-0" x1="0" x2="0" y1="1" y2="0"><stop stop-color="rgba(62, 243, 224.606, 1)" offset="0%"/><stop stop-color="rgba(11, 89.693, 255, 1)" offset="100%"/></linearGradient></defs><path style="transform:translate(0, 0px); opacity:1" fill="url(#sw-gradient-0)" d="M0,170L40,158.7C80,147,160,125,240,124.7C320,125,400,147,480,170C560,193,640,215,720,204C800,193,880,147,960,124.7C1040,102,1120,102,1200,102C1280,102,1360,102,1440,124.7C1520,147,1600,193,1680,215.3C1760,238,1840,238,1920,204C2000,170,2080,102,2160,96.3C2240,91,2320,147,2400,147.3C2480,147,2560,91,2640,90.7C2720,91,2800,147,2880,158.7C2960,170,3040,136,3120,141.7C3200,147,3280,193,3360,175.7C3440,159,3520,79,3600,56.7C3680,34,3760,68,3840,102C3920,136,4000,170,4080,175.7C4160,181,4240,159,4320,136C4400,113,4480,91,4560,96.3C4640,102,4720,136,4800,141.7C4880,147,4960,125,5040,96.3C5120,68,5200,34,5280,56.7C5360,79,5440,159,5520,192.7C5600,227,5680,215,5720,209.7L5760,204L5760,340L5720,340C5680,340,5600,340,5520,340C5440,340,5360,340,5280,340C5200,340,5120,340,5040,340C4960,340,4880,340,4800,340C4720,340,4640,340,4560,340C4480,340,4400,340,4320,340C4240,340,4160,340,4080,340C4000,340,3920,340,3840,340C3760,340,3680,340,3600,340C3520,340,3440,340,3360,340C3280,340,3200,340,3120,340C3040,340,2960,340,2880,340C2800,340,2720,340,2640,340C2560,340,2480,340,2400,340C2320,340,2240,340,2160,340C2080,340,2000,340,1920,340C1840,340,1760,340,1680,340C1600,340,1520,340,1440,340C1360,340,1280,340,1200,340C1120,340,1040,340,960,340C880,340,800,340,720,340C640,340,560,340,480,340C400,340,320,340,240,340C160,340,80,340,40,340L0,340Z"/></svg>